<svg version="1.1" id="Слой_1" xmlns="http://www.w3.org/2000/svg" x="0" y="0" viewBox="0 0 586.8 103.5" style="enable-background:new 0 0 586.8 103.5" xml:space="preserve"><style>.st0{fill:#0a0404}</style><path class="st0" d="M102.6 51.7c0 7.4-1.2 14.3-3.7 20.6-2.5 6.3-5.9 11.8-10.4 16.4S78.6 97 72.3 99.6c-6.3 2.6-13.3 3.9-20.9 3.9s-14.6-1.3-21-3.9-11.7-6.2-16.2-10.8-8-10.1-10.5-16.4C1.2 66 0 59.2 0 51.7s1.2-14.3 3.7-20.6 6-11.8 10.5-16.4c4.5-4.6 9.9-8.2 16.2-10.8S43.7 0 51.4 0 66 1.3 72.3 3.9c6.3 2.6 11.7 6.2 16.2 10.8 4.5 4.6 8 10.1 10.4 16.4 2.5 6.3 3.7 13.2 3.7 20.6zm-19.3 0c0-5.5-.7-10.5-2.2-14.9s-3.6-8.2-6.3-11.2-6.1-5.4-10.1-7.1c-3.9-1.6-8.4-2.5-13.3-2.5s-9.4.8-13.4 2.5c-4 1.6-7.3 4-10.1 7.1-2.8 3.1-4.9 6.8-6.4 11.2s-2.2 9.4-2.2 14.9.8 10.5 2.2 15 3.6 8.1 6.4 11.2c2.8 3.1 6.1 5.4 10.1 7 4 1.6 8.4 2.5 13.4 2.5s9.4-.8 13.3-2.5 7.3-4 10.1-7c2.8-3.1 4.9-6.8 6.3-11.2 1.5-4.4 2.2-9.4 2.2-15zM136.9 43.5h4.4c1.8 0 3.2-.3 4.4-.7s2.2-1.3 3-2.3l27.9-35.4c1.2-1.5 2.4-2.5 3.7-3.1 1.3-.6 2.9-.9 4.9-.9h16.2l-34.1 42.1c-1.1 1.3-2.1 2.4-3.1 3.3s-2 1.6-3.1 2.2c1.5.6 2.9 1.4 4.2 2.4s2.4 2.3 3.6 3.9l35.1 47.4h-16.7c-2.2 0-3.9-.3-5-1-1.1-.6-2-1.5-2.8-2.8L151 61.3c-.9-1.2-2-2.1-3.1-2.6s-2.8-.8-5-.8H137v44.5h-18.8V1.1H137l-.1 42.4zM261.7 43.5h4.4c1.8 0 3.2-.3 4.4-.7s2.2-1.3 3-2.3l27.9-35.4c1.2-1.5 2.4-2.5 3.7-3.1s2.9-.9 4.9-.9h16.2l-34.1 42.1c-1.1 1.3-2.1 2.4-3.1 3.3-1 .9-2 1.6-3.1 2.2 1.5.6 2.9 1.4 4.2 2.4 1.2 1 2.4 2.3 3.6 3.9l35.1 47.4h-16.7c-2.2 0-3.9-.3-5-1s-2-1.5-2.8-2.8l-28.6-37.4c-.9-1.2-2-2.1-3.1-2.6-1.2-.5-2.8-.8-5-.8h-6v44.5h-18.8V1.1h18.8l.1 42.4zM361.1 102.3h-18.9V1.1h18.9v101.2zM395.8 1.2c.6.1 1.1.2 1.5.4.4.2.9.5 1.3.9s.9.9 1.4 1.6l53.1 67.7c-.2-1.6-.3-3.2-.4-4.8-.1-1.6-.1-3-.1-4.4V1.1h16.6v101.2h-9.7c-1.5 0-2.7-.2-3.7-.7-1-.5-1.9-1.3-2.9-2.5L400 31.7c.1 1.5.3 3 .3 4.5.1 1.5.1 2.8.1 4v62.2h-16.6V1.1h9.9c.9 0 1.6.1 2.1.1zM586.8 51.7c0 7.4-1.2 14.3-3.7 20.6-2.5 6.3-6 11.8-10.4 16.4-4.5 4.6-9.9 8.2-16.2 10.8-6.3 2.6-13.3 3.9-20.9 3.9-7.7 0-14.6-1.3-21-3.9-6.3-2.6-11.7-6.2-16.2-10.8s-8-10.1-10.5-16.4c-2.5-6.3-3.7-13.2-3.7-20.6s1.2-14.3 3.7-20.6 6-11.8 10.5-16.4c4.5-4.6 9.9-8.2 16.2-10.8 6.3-2.6 13.3-3.9 21-3.9s14.6 1.3 20.9 3.9c6.3 2.6 11.7 6.2 16.2 10.8 4.5 4.6 8 10.1 10.4 16.4s3.7 13.2 3.7 20.6zm-19.3 0c0-5.5-.7-10.5-2.2-14.9s-3.6-8.2-6.3-11.2-6.1-5.4-10-7.1-8.4-2.5-13.3-2.5c-5 0-9.4.8-13.4 2.5s-7.3 4-10.1 7.1c-2.8 3.1-4.9 6.8-6.4 11.2-1.5 4.4-2.2 9.4-2.2 14.9s.8 10.5 2.2 15 3.6 8.1 6.4 11.2c2.8 3.1 6.2 5.4 10.1 7 4 1.6 8.4 2.5 13.4 2.5s9.4-.8 13.3-2.5 7.3-4 10-7 4.9-6.8 6.3-11.2 2.2-9.4 2.2-15z"/></svg>