<svg width="117" height="21" viewBox="0 0 117 21" fill="none" xmlns="http://www.w3.org/2000/svg">
  <path d="M21.1688 10.4091C21.1688 11.8239 20.9226 13.1402 20.4301 14.358C19.9465 15.5758 19.2615 16.637 18.375 17.5414C17.4885 18.4368 16.4184 19.1397 15.1648 19.6502C13.9201 20.1606 12.5366 20.4158 11.0143 20.4158C9.49206 20.4158 8.10411 20.1606 6.85047 19.6502C5.59683 19.1397 4.52228 18.4368 3.62683 17.5414C2.74033 16.637 2.05083 15.5758 1.55833 14.358C1.07478 13.1402 0.833008 11.8239 0.833008 10.4091C0.833008 8.99424 1.07478 7.67792 1.55833 6.4601C2.05083 5.24228 2.74033 4.18564 3.62683 3.29018C4.52228 2.39473 5.59683 1.6918 6.85047 1.18139C8.10411 0.670977 9.49206 0.415771 11.0143 0.415771C12.5366 0.415771 13.9201 0.675453 15.1648 1.19482C16.4184 1.70523 17.4885 2.40816 18.375 3.30362C19.2615 4.19907 19.9465 5.25571 20.4301 6.47353C20.9226 7.69135 21.1688 9.00319 21.1688 10.4091ZM16.5214 10.4091C16.5214 9.44196 16.396 8.57337 16.1453 7.80328C15.8946 7.02423 15.5319 6.36607 15.0573 5.8288C14.5917 5.29153 14.0186 4.87962 13.338 4.59307C12.6575 4.30653 11.8829 4.16325 11.0143 4.16325C10.1368 4.16325 9.35327 4.30653 8.66377 4.59307C7.98322 4.87962 7.40565 5.29153 6.93106 5.8288C6.46542 6.36607 6.10724 7.02423 5.85651 7.80328C5.60579 8.57337 5.48042 9.44196 5.48042 10.4091C5.48042 11.3851 5.60579 12.2626 5.85651 13.0417C6.10724 13.8118 6.46542 14.4655 6.93106 15.0027C7.40565 15.54 7.98322 15.9519 8.66377 16.2385C9.35327 16.5161 10.1368 16.6549 11.0143 16.6549C11.8829 16.6549 12.6575 16.5161 13.338 16.2385C14.0186 15.9519 14.5917 15.54 15.0573 15.0027C15.5319 14.4655 15.8946 13.8118 16.1453 13.0417C16.396 12.2626 16.5214 11.3851 16.5214 10.4091Z" fill="#262217"/>
  <path d="M28.3804 8.55546H29.1058C29.7773 8.55546 30.2609 8.34503 30.5564 7.92417L34.962 1.53061C35.2217 1.19034 35.4993 0.957522 35.7948 0.832159C36.0993 0.69784 36.4754 0.630681 36.9231 0.630681H40.872L35.0695 8.54203C34.6576 9.08826 34.2143 9.48226 33.7397 9.72403C34.08 9.8494 34.3889 10.024 34.6665 10.2479C34.9441 10.4717 35.2038 10.7628 35.4456 11.1209L41.3556 20.2009H37.2992C37.0395 20.2009 36.8156 20.183 36.6276 20.1471C36.4485 20.1113 36.2918 20.0576 36.1575 19.986C36.0232 19.9143 35.9067 19.8292 35.8082 19.7307C35.7097 19.6233 35.6157 19.5024 35.5262 19.3681L31.0937 12.5581C30.9325 12.3074 30.7265 12.1328 30.4758 12.0343C30.234 11.9269 29.9027 11.8731 29.4818 11.8731H28.3804V20.2009H23.8405V0.630681H28.3804V8.55546Z" fill="#262217"/>
  <path d="M53.5651 8.55546H54.2904C54.962 8.55546 55.4456 8.34503 55.7411 7.92417L60.1467 1.53061C60.4064 1.19034 60.684 0.957522 60.9795 0.832159C61.284 0.69784 61.66 0.630681 62.1078 0.630681H66.0567L60.2542 8.54203C59.8423 9.08826 59.399 9.48226 58.9244 9.72403C59.2647 9.8494 59.5736 10.024 59.8512 10.2479C60.1288 10.4717 60.3885 10.7628 60.6303 11.1209L66.5403 20.2009H62.4839C62.2242 20.2009 62.0003 20.183 61.8123 20.1471C61.6332 20.1113 61.4765 20.0576 61.3422 19.986C61.2078 19.9143 61.0914 19.8292 60.9929 19.7307C60.8944 19.6233 60.8004 19.5024 60.7109 19.3681L56.2784 12.5581C56.1172 12.3074 55.9112 12.1328 55.6605 12.0343C55.4187 11.9269 55.0874 11.8731 54.6665 11.8731H53.5651V20.2009H49.0252V0.630681H53.5651V8.55546Z" fill="#262217"/>
  <path d="M72.5592 20.2009H67.9924V0.630681H72.5592V20.2009Z" fill="#262217"/>
  <path d="M93.4201 0.630681V20.2009H91.0561C90.7069 20.2009 90.4114 20.1471 90.1696 20.0397C89.9368 19.9233 89.704 19.7263 89.4711 19.4487L80.2435 7.77642C80.2793 8.12564 80.3017 8.46592 80.3106 8.79724C80.3286 9.1196 80.3375 9.42406 80.3375 9.7106V20.2009H76.3348V0.630681H78.7257C78.9227 0.630681 79.0883 0.639636 79.2227 0.657545C79.357 0.675453 79.4779 0.711272 79.5853 0.764999C79.6928 0.809772 79.7957 0.876931 79.8942 0.966477C79.9927 1.05602 80.1047 1.17691 80.23 1.32914L89.5383 13.082C89.4935 12.7059 89.4622 12.3432 89.4443 11.994C89.4264 11.6358 89.4174 11.3 89.4174 10.9866V0.630681H93.4201Z" fill="#262217"/>
  <path d="M116.425 10.4091C116.425 11.8239 116.178 13.1402 115.686 14.358C115.202 15.5758 114.517 16.637 113.631 17.5414C112.744 18.4368 111.674 19.1397 110.421 19.6502C109.176 20.1606 107.792 20.4158 106.27 20.4158C104.748 20.4158 103.36 20.1606 102.106 19.6502C100.853 19.1397 99.7781 18.4368 98.8827 17.5414C97.9962 16.637 97.3067 15.5758 96.8142 14.358C96.3306 13.1402 96.0888 11.8239 96.0888 10.4091C96.0888 8.99424 96.3306 7.67792 96.8142 6.4601C97.3067 5.24228 97.9962 4.18564 98.8827 3.29018C99.7781 2.39473 100.853 1.6918 102.106 1.18139C103.36 0.670977 104.748 0.415771 106.27 0.415771C107.792 0.415771 109.176 0.675453 110.421 1.19482C111.674 1.70523 112.744 2.40816 113.631 3.30362C114.517 4.19907 115.202 5.25571 115.686 6.47353C116.178 7.69135 116.425 9.00319 116.425 10.4091ZM111.777 10.4091C111.777 9.44196 111.652 8.57337 111.401 7.80328C111.15 7.02423 110.788 6.36607 110.313 5.8288C109.848 5.29153 109.274 4.87962 108.594 4.59307C107.913 4.30653 107.139 4.16325 106.27 4.16325C105.393 4.16325 104.609 4.30653 103.92 4.59307C103.239 4.87962 102.661 5.29153 102.187 5.8288C101.721 6.36607 101.363 7.02423 101.112 7.80328C100.862 8.57337 100.736 9.44196 100.736 10.4091C100.736 11.3851 100.862 12.2626 101.112 13.0417C101.363 13.8118 101.721 14.4655 102.187 15.0027C102.661 15.54 103.239 15.9519 103.92 16.2385C104.609 16.5161 105.393 16.6549 106.27 16.6549C107.139 16.6549 107.913 16.5161 108.594 16.2385C109.274 15.9519 109.848 15.54 110.313 15.0027C110.788 14.4655 111.15 13.8118 111.401 13.0417C111.652 12.2626 111.777 11.3851 111.777 10.4091Z" fill="#262217"/>
</svg>
